#!OML:ASF G:\JayActor3\Patient Classification 1\Patient 1\Session 6\male.ASF
:FULLY-SPECIFIED
:DEGREES
654
root 7.66704 16.0586 -0.527294 18.2494 -41.3327 -2.75306
lowerback 23.0874 1.34167 5.03534
upperback 14.3614 2.00442 1.98454
thorax 3.09308 1.00421 -1.1081
lowerneck -4.11307 -4.72774 -4.04244
upperneck 4.17387 -6.07521 0.151247
head 2.15208 -3.08741 0.53912
rclavicle -5.40694e-014 5.80451e-014
rhumerus 4.80198 24.0561 -68.0382
rradius 31.1737
rwrist 1.7086
rhand -20.1762 -7.2717
rfingers 7.12502
rthumb 6.16967 -37.1619
lclavicle -5.40694e-014 5.80451e-014
lhumerus -17.052 -11.7945 84.2646
lradius 74.3519
lwrist 30.8759
lhand -20.762 8.33333
lfingers 7.12502
lthumb 5.6041 38.2392
rfemur -50.2544 -5.85467 19.8639
rtibia 49.4399
rfoot -16.1676 -14.4207
rtoes 4.73907
lfemur -45.2266 3.75125 -22.6783
ltibia 40.1383
lfoot -10.5364 -1.44133
ltoes -1.27066
655
root 7.64926 16.0353 -0.545117 18.6315 -41.0764 -2.47931
lowerback 23.5141 1.32844 5.11148
upperback 14.4854 2.01027 2.02482
thorax 3.03358 1.00686 -1.11591
lowerneck -3.89903 -4.80508 -4.12057
upperneck 3.56734 -6.19766 0.311513
head 1.92634 -3.14065 0.611342
rclavicle -1.82882e-014 1.15295e-014
rhumerus 6.27737 24.8589 -66.8225
rradius 31.3765
rwrist 1.41029
rhand -20.1404 -7.25492
rfingers 7.12502
rthumb 6.20428 -37.1441
lclavicle -1.82882e-014 1.15295e-014
lhumerus -17.3845 -11.4547 84.2895
lradius 73.7903
lwrist 30.8919
lhand -20.879 8.36354
lfingers 7.12502
lthumb 5.49118 38.2724
rfemur -51.2612 -6.28441 19.9419
rtibia 50.0695
rfoot -16.247 -14.2456
rtoes 4.67664
lfemur -46.2164 3.72243 -22.9021
ltibia 40.6541
lfoot -10.5303 -1.74244
ltoes -1.16061
656
root 7.63025 16.0103 -0.564239 19.0133 -40.8288 -2.20993
lowerback 23.9749 1.32624 5.18793
upperback 14.5806 2.0356 2.0519
thorax 2.92777 1.01909 -1.14345
lowerneck -3.65195 -4.89007 -4.16674
upperneck 2.97867 -6.33308 0.485275
head 1.70273 -3.20032 0.682608
rclavicle -6.36111e-015 -2.90226e-014
rhumerus 7.7235 25.5863 -65.611
rradius 31.5599
rwrist 1.16259
rhand -20.1015 -7.21476
rfingers 7.12502
rthumb 6.24178 -37.1028
lclavicle -6.36111e-015 -2.90226e-014
lhumerus -17.7377 -11.1581 84.3142
lradius 73.1136
lwrist 30.8647
lhand -20.9541 8.35258
lfingers 7.12502
lthumb 5.41871 38.2633
rfemur -52.3013 -6.82208 20.0949
rtibia 50.7186
rfoot -16.2497 -13.9961
rtoes 4.53306
lfemur -47.2059 3.71092 -23.1225
ltibia 41.1725
lfoot -10.5183 -2.05629
ltoes -1.07574
657
root 7.61031 15.9844 -0.584894 19.3956 -40.5882 -1.93839
lowerback 24.4543 1.34336 5.26017
upperback 14.6497 2.08906 2.0683
thorax 2.78664 1.04503 -1.18718
lowerneck -3.36375 -4.98929 -4.16346
upperneck 2.39835 -6.49059 0.665793
head 1.47603 -3.27118 0.748209
rclavicle 2.06736e-014 2.94201e-014
rhumerus 9.12671 26.2258 -64.4041
rradius 31.7248
rwrist 0.961871
rhand -20.0988 -7.17224
rfingers 7.12502
rthumb 6.24442 -37.0602
lclavicle 2.06736e-014 2.94201e-014
lhumerus -18.121 -10.9515 84.3337
lradius 72.3609
lwrist 30.8192
lhand -20.9529 8.31441
lfingers 7.12502
lthumb 5.41987 38.2251
rfemur -53.3613 -7.33073 20.2551
rtibia 51.3828
rfoot -16.256 -13.7722
rtoes 4.41391
lfemur -48.1988 3.70544 -23.3416
ltibia 41.6916
lfoot -10.505 -2.38168
ltoes -0.974274
658
root 7.58897 15.958 -0.605993 19.775 -40.3799 -1.67379
lowerback 24.9327 1.39437 5.30434
upperback 14.716 2.18044 2.08807
thorax 2.64456 1.08766 -1.22006
lowerneck -3.05655 -5.10263 -4.1285
upperneck 1.81613 -6.66756 0.847624
head 1.24731 -3.35252 0.809444
rclavicle 4.13472e-014 5.56597e-015
rhumerus 10.5178 26.7988 -63.1595
rradius 31.875
rwrist 0.809025
rhand -20.1597 -7.16102
rfingers 7.12502
rthumb 6.1856 -37.0507
lclavicle 4.13472e-014 5.56597e-015
lhumerus -18.5326 -10.8432 84.3435
lradius 71.574
lwrist 30.7462
lhand -20.8828 8.27085
lfingers 7.12502
lthumb 5.48748 38.1798
rfemur -54.4225 -7.79809 20.4221
rtibia 52.0534
rfoot -16.2601 -13.5579
rtoes 4.29595
lfemur -49.1769 3.72217 -23.5564
ltibia 42.2101
lfoot -10.4991 -2.70787
ltoes -0.860167
659
root 7.56671 15.9313 -0.626577 20.1404 -40.208 -1.40755
lowerback 25.4135 1.46568 5.31677
upperback 14.7902 2.29012 2.10802
thorax 2.51109 1.13719 -1.2396
lowerneck -2.75916 -5.21938 -4.09435
upperneck 1.23316 -6.84697 1.03679
head 1.02296 -3.43622 0.87359
rclavicle 8.42847e-014 -6.2816e-014
rhumerus 11.9346 27.3246 -61.8654
rradius 32.0133
rwrist 0.665781
rhand -20.2385 -7.16358
rfingers 7.12502
rthumb 6.1096 -37.0555
lclavicle 8.42847e-014 -6.2816e-014
lhumerus -18.9567 -10.7854 84.3384
lradius 70.7572
lwrist 30.6643
lhand -20.7499 8.18427
lfingers 7.12502
lthumb 5.61579 38.0899
rfemur -55.4734 -8.25093 20.5948
rtibia 52.7199
rfoot -16.248 -13.329
rtoes 4.15685
lfemur -50.128 3.75448 -23.776
ltibia 42.7223
lfoot -10.5049 -3.02575
ltoes -0.725046
660
root 7.5443 15.9047 -0.64642 20.5108 -40.0591 -1.15483
lowerback 25.8671 1.55027 5.29088
upperback 14.8882 2.40443 2.15345
thorax 2.41576 1.18567 -1.21066
lowerneck -2.49763 -5.33043 -4.09122
upperneck 0.639987 -7.01478 1.21506
head 0.804228 -3.5156 0.939923
rclavicle -1.11319e-014 -1.11319e-013
rhumerus 13.4296 27.8196 -60.4674
rradius 32.1421
rwrist 0.513876
rhand -20.3155 -7.1766
rfingers 7.12502
rthumb 6.03519 -37.0706
lclavicle -1.11319e-014 -1.11319e-013
lhumerus -19.3583 -10.6805 84.3496
lradius 69.8885
lwrist 30.5645
lhand -20.5606 8.05468
lfingers 7.12502
lthumb 5.79858 37.9553
rfemur -56.5065 -8.64092 20.7584
rtibia 53.3729
rfoot -16.2583 -13.1254
rtoes 4.05509
lfemur -51.0645 3.79021 -23.9876
ltibia 43.2278
lfoot -10.5242 -3.32421
ltoes -0.585821
661
root 7.52199 15.8784 -0.665423 20.8917 -39.9281 -0.923472
lowerback 26.2983 1.64542 5.25291
upperback 15.0121 2.52475 2.21513
thorax 2.3605 1.23599 -1.1581
lowerneck -2.28859 -5.43887 -4.09666
upperneck 0.0393773 -7.17577 1.37912
head 0.593425 -3.59275 1.00319
rclavicle -7.15625e-014 6.75868e-014
rhumerus 14.9942 28.2192 -59.0025
rradius 32.249
rwrist 0.403387
rhand -20.3316 -7.18592
rfingers 7.12502
rthumb 6.01966 -37.0804
lclavicle -7.15625e-014 6.75868e-014
lhumerus -19.7075 -10.551 84.3719
lradius 68.966
lwrist 30.4629
lhand -20.4064 8.00836
lfingers 7.12502
lthumb 5.94743 37.9049
rfemur -57.5162 -8.95881 20.9117
rtibia 54.0094
rfoot -16.3045 -12.9531
rtoes 4.00153
lfemur -51.9883 3.82432 -24.1838
ltibia 43.7284
lfoot -10.5572 -3.59494
ltoes -0.439966
662
root 7.49991 15.8517 -0.683936 21.288 -39.7984 -0.709611
lowerback 26.7108 1.72634 5.18551
upperback 15.1553 2.6175 2.30338
thorax 2.33239 1.26943 -1.05345
lowerneck -2.13718 -5.52171 -4.16974
upperneck -0.557554 -7.29818 1.52528
head 0.395589 -3.6516 1.07229
rclavicle -3.97569e-014 -7.15625e-015
rhumerus 16.667 28.5809 -57.4595
rradius 32.3314
rwrist 0.316417
rhand -20.2864 -7.18142
rfingers 7.12502
rthumb 6.06335 -37.0747
lclavicle -3.97569e-014 -7.15625e-015
lhumerus -19.9968 -10.2904 84.4183
lradius 67.9498
lwrist 30.3764
lhand -20.3131 8.01475
lfingers 7.12502
lthumb 6.03752 37.9087
rfemur -58.5209 -9.26042 21.0792
rtibia 54.6355
rfoot -16.3708 -12.7794
rtoes 3.99046
lfemur -52.915 3.84568 -24.3664
ltibia 44.2298
lfoot -10.6023 -3.83495
ltoes -0.321568
663
root 7.47873 15.824 -0.702453 21.7032 -39.6491 -0.500928
lowerback 27.1066 1.80061 5.14149
upperback 15.3005 2.70534 2.39721
thorax 2.31645 1.30192 -0.954465
lowerneck -2.01049 -5.60577 -4.22683
upperneck -1.15534 -7.42172 1.64391
head 0.200656 -3.71163 1.13064
rclavicle 6.36111e-015 1.98785e-014
rhumerus 18.3497 28.8106 -55.9172
rradius 32.3814
rwrist 0.26632
rhand -20.2304 -7.15857
rfingers 7.12502
rthumb 6.11737 -37.0502
lclavicle 6.36111e-015 1.98785e-014
lhumerus -20.2525 -10.0467 84.4684
lradius 66.8967
lwrist 30.3358
lhand -20.3109 8.09842
lfingers 7.12502
lthumb 6.03966 37.9923
rfemur -59.5339 -9.54123 21.2435
rtibia 55.2533
rfoot -16.4689 -12.6271
rtoes 4.03435
lfemur -53.8633 3.8323 -24.5407
ltibia 44.7335
lfoot -10.6505 -4.0463
ltoes -0.208278
664
root 7.45797 15.7948 -0.721679 22.1298 -39.4789 -0.285994
lowerback 27.4929 1.87862 5.10523
upperback 15.4428 2.79933 2.50116
thorax 2.30277 1.33752 -0.850319
lowerneck -1.89874 -5.69773 -4.24892
upperneck -1.75659 -7.55651 1.72296
head 0.00488341 -3.77789 1.17162
rclavicle -5.40694e-014 3.73715e-014
rhumerus 20.0095 28.9184 -54.3846
rradius 32.4012
rwrist 0.278361
rhand -20.2419 -7.13889
rfingers 7.12502
rthumb 6.10627 -37.0309
lclavicle -5.40694e-014 3.73715e-014
lhumerus -20.4622 -9.83722 84.5619
lradius 65.792
lwrist 30.291
lhand -20.3877 8.25409
lfingers 7.12502
lthumb 5.96556 38.1501
rfemur -60.569 -9.84758 21.4235
rtibia 55.8687
rfoot -16.5709 -12.4668
rtoes 4.07558
lfemur -54.8371 3.79748 -24.7206
ltibia 45.2418
lfoot -10.6938 -4.24689
ltoes -0.142892
665
root 7.43738 15.7656 -0.740076 22.5504 -39.3202 -0.0783184
lowerback 27.889 1.96513 5.08066
upperback 15.585 2.90613 2.60482
thorax 2.28715 1.37994 -0.756704
lowerneck -1.77996 -5.79395 -4.23435
upperneck -2.36734 -7.69891 1.76536
head -0.197566 -3.84849 1.19689
rclavicle 0 3.02153e-014
rhumerus 21.63 28.9303 -52.8739
rradius 32.3981
rwrist 0.32033
rhand -20.3114 -7.10655
rfingers 7.12502
rthumb 6.03917 -37.0005
lclavicle 0 3.02153e-014
lhumerus -20.6411 -9.67024 84.6932
lradius 64.6468
lwrist 30.2499
lhand -20.5237 8.43202
lfingers 7.12502
lthumb 5.83424 38.3317
rfemur -61.5769 -10.1024 21.5849
rtibia 56.4725
rfoot -16.7036 -12.3328
rtoes 4.14627
lfemur -55.7961 3.77532 -24.9034
ltibia 45.7513
lfoot -10.745 -4.44451
ltoes -0.0723566
666
root 7.41702 15.7369 -0.757191 22.9621 -39.1817 0.122012
lowerback 28.2936 2.06083 5.05779
upperback 15.7261 3.02443 2.70909
thorax 2.26796 1.42773 -0.666882
lowerneck -1.64558 -5.89222 -4.1962
upperneck -2.98997 -7.8464 1.77657
head -0.408535 -3.92201 1.21092
rclavicle -4.6118e-014 6.52014e-014
rhumerus 23.208 28.8767 -51.3739
rradius 32.3851
rwrist 0.377538
rhand -20.3964 -7.05717
rfingers 7.12502
rthumb 5.95711 -36.9534
lclavicle -4.6118e-014 6.52014e-014
lhumerus -20.8152 -9.53816 84.8361
lradius 63.4778
lwrist 30.1851
lhand -20.6316 8.59652
lfingers 7.12502
lthumb 5.73008 38.499
rfemur -62.5502 -10.2868 21.7135
rtibia 57.0635
rfoot -16.8696 -12.2376
rtoes 4.23879
lfemur -56.7356 3.77252 -25.0909
ltibia 46.2628
lfoot -10.8027 -4.64385
ltoes 0.0354926
667
root 7.39638 15.7081 -0.772306 23.3473 -39.0806 0.316707
lowerback 28.7333 2.15508 5.0434
upperback 15.8621 3.14342 2.79028
thorax 2.23044 1.47689 -0.609035
lowerneck -1.49864 -5.98491 -4.14827
upperneck -3.61093 -7.98783 1.78303
head -0.622478 -3.99275 1.22405
rclavicle -7.95139e-015 2.3059e-014
rhumerus 24.7431 28.7697 -49.9232
rradius 32.3653
rwrist 0.445915
rhand -20.4621 -7.02167
rfingers 7.12502
rthumb 5.89373 -36.9197
lclavicle -7.95139e-015 2.3059e-014
lhumerus -21.0387 -9.48119 84.9437
lradius 62.3681
lwrist 30.1395
lhand -20.687 8.73379
lfingers 7.12502
lthumb 5.67651 38.6378
rfemur -63.4825 -10.4512 21.836
rtibia 57.6437
rfoot -17.032 -12.1328
rtoes 4.29794
lfemur -57.6354 3.80732 -25.2899
ltibia 46.779
lfoot -10.8698 -4.85446
ltoes 0.211244
668
root 7.37546 15.6789 -0.78618 23.7149 -39.0015 0.511277
lowerback 29.2014 2.24233 5.04201
upperback 15.9851 3.25815 2.8465
thorax 2.16909 1.52554 -0.586799
lowerneck -1.3413 -6.07467 -4.09432
upperneck -4.22068 -8.12583 1.79961
head -0.835669 -4.06213 1.24111
rclavicle 9.54166e-014 5.1684e-014
rhumerus 26.2263 28.6214 -48.5248
rradius 32.3454
rwrist 0.50971
rhand -20.5145 -7.04291
rfingers 7.12502
rthumb 5.84312 -36.9423
lclavicle 9.54166e-014 5.1684e-014
lhumerus -21.3014 -9.41757 85.029
lradius 61.2838
lwrist 30.0512
lhand -20.6418 8.83825
lfingers 7.12502
lthumb 5.72015 38.741
rfemur -64.3948 -10.6067 21.9566
rtibia 58.2222
rfoot -17.1932 -12.0246
rtoes 4.3384
lfemur -58.517 3.86955 -25.5029
ltibia 47.3051
lfoot -10.9395 -5.08523
ltoes 0.462938
